<svg id="visual" viewBox="0 0 900 600" width="900" height="600" xmlns="http://www.w3.org/2000/svg" xmlns:xlink="http://www.w3.org/1999/xlink" version="1.1"><g transform="translate(891.2936151973923 3.391770211966019)"><path d="M103.8 -116.2C140.7 -92.7 181.1 -65.9 195.8 -27.9C210.4 10.1 199.1 59.3 169.9 87C140.7 114.6 93.4 120.7 52 130.4C10.6 140 -25 153.2 -58.1 146.7C-91.2 140.2 -121.8 114.1 -147.5 80.1C-173.2 46 -193.9 4.1 -180.6 -24.9C-167.2 -54 -119.8 -70.1 -84 -93.8C-48.2 -117.5 -24.1 -148.7 4.7 -154.3C33.4 -159.8 66.8 -139.7 103.8 -116.2" fill="none" stroke="#BB004B" stroke-width="6"></path></g></svg>