<svg id="visual" viewBox="0 0 900 600" width="900" height="600" xmlns="http://www.w3.org/2000/svg" xmlns:xlink="http://www.w3.org/1999/xlink" version="1.1"><rect x="0" y="0" width="900" height="600" fill="#002233"></rect><path d="M775 600L787.7 583.3C800.3 566.7 825.7 533.3 830.3 500C835 466.7 819 433.3 806.8 400C794.7 366.7 786.3 333.3 796.2 300C806 266.7 834 233.3 847 200C860 166.7 858 133.3 843 100C828 66.7 800 33.3 786 16.7L772 0L900 0L900 16.7C900 33.3 900 66.7 900 100C900 133.3 900 166.7 900 200C900 233.3 900 266.7 900 300C900 333.3 900 366.7 900 400C900 433.3 900 466.7 900 500C900 533.3 900 566.7 900 583.3L900 600Z" fill="#0066FF" stroke-linecap="round" stroke-linejoin="miter"></path></svg>