<svg id="visual" viewBox="0 0 900 600" width="900" height="600" xmlns="http://www.w3.org/2000/svg" xmlns:xlink="http://www.w3.org/1999/xlink" version="1.1"><g><g transform="translate(752 537)"><path d="M57.7 31.2C42 60.6 -26.1 57.5 -44.5 26.7C-62.9 -4.2 -31.4 -62.8 2.6 -61.3C36.7 -59.7 73.4 1.9 57.7 31.2Z" stroke="#F7760E" fill="none" stroke-width="20"></path></g><g transform="translate(639 19)"><path d="M54.3 30.8C35.6 63.8 -38.4 64.3 -56.7 31.6C-74.9 -1.1 -37.5 -67.1 -0.5 -67.4C36.5 -67.6 73.1 -2.2 54.3 30.8Z" stroke="#F7760E" fill="none" stroke-width="20"></path></g><g transform="translate(87 517)"><path d="M53.4 28.3C38.1 57.3 -26.8 55.1 -43.9 25.1C-61.1 -5 -30.5 -62.9 1.9 -61.8C34.3 -60.7 68.7 -0.6 53.4 28.3Z" stroke="#F7760E" fill="none" stroke-width="20"></path></g><g transform="translate(514 358)"><path d="M37.6 24.4C19.3 53.5 -45.3 58.5 -59.3 32C-73.3 5.4 -36.7 -52.7 -4.3 -55.2C28 -57.7 56 -4.6 37.6 24.4Z" stroke="#F7760E" fill="none" stroke-width="20"></path></g><g transform="translate(40 149)"><path d="M42.9 26.1C28.7 49.4 -28.4 49.4 -42.6 26C-56.9 2.7 -28.5 -44 0 -43.9C28.6 -43.9 57.1 2.8 42.9 26.1Z" stroke="#F7760E" fill="none" stroke-width="20"></path></g><g transform="translate(860 240)"><path d="M48.2 29.8C29.4 60.3 -41.5 62.6 -58.3 33.3C-75 4 -37.5 -56.9 -2 -58C33.5 -59.2 66.9 -0.6 48.2 29.8Z" stroke="#F7760E" fill="none" stroke-width="20"></path></g><g transform="translate(330 44)"><path d="M48.7 26.7C31.6 57.7 -35.5 58.5 -52 27.9C-68.4 -2.8 -34.2 -64.7 -0.7 -65.1C32.9 -65.5 65.8 -4.3 48.7 26.7Z" stroke="#F7760E" fill="none" stroke-width="20"></path></g></g></svg>